<svg id="_Layer_" data-name="&lt;Layer&gt;" xmlns="http://www.w3.org/2000/svg" viewBox="0 0 2713.64 1920.76"><defs><style>.cls-1{fill:#a6a6a6;}.cls-2{fill:#dbdbdb;}.cls-3{fill:#ebebeb;}.cls-4{fill:#263238;}.cls-5{fill:#ffc727;}.cls-6{opacity:0.1;}.cls-7{fill:#dd6a57;}.cls-8{fill:#37474f;}.cls-9{fill:#455a64;}.cls-10{fill:#fff;}.cls-11{fill:#ff99ba;}.cls-12{opacity:0.3;}</style></defs><title>404</title><path class="cls-1" d="M691,1270.21c-82.12,80.4-95.9,204.78-78.59,313.72.44,2.47,4.27,1.79,4.27-.53,0-24.8-.75-49.37-.68-73.87.45-1.13.83-2.18,1.28-3.3,21.42-15.59,41.13-33.19,53.34-57.32,13.71-27,19.11-57.39,29.6-85.56,1-2.7-1.9-1.91-3.79-.52-50,36.84-65.87,76.49-80.2,129.46.67-27.5,2.77-55,8.69-82.49,10.79-50.28,32.14-100.1,68.26-137.42C694.56,1271,692.47,1268.79,691,1270.21Z" transform="translate(-238.19 -46.11)"/><path class="cls-2" d="M706.48,1279.58c14.12.48,23,23.06,34,29.65,5.82,3.51,11.5,3.29,15.59-2.45,10.91-15.23-4.06-34-18.13-44.52,10.06,4.14,18.41,11.41,29.26,13.47,6.58,1.21,11.69-1.23,13.22-7.91,4.78-20.76-21.26-30-39.12-30.43,8.66-6,33.48-22.39,20.29-30.44-13.36-8.08-42.49,15.32-52,23-14,11.33-30.62,28.26-31.25,46C677.52,1296.65,695.6,1283.92,706.48,1279.58Z" transform="translate(-238.19 -46.11)"/><path class="cls-3" d="M702.39,1283.07c18.06-8.21,52.76,3.6,55.71-3.23,6-13.92-21.75-23.46-36.71-25.31,13.78-3.73,40.19-9.68,39.38-23-1-16.23-40.51-2.27-60.51,13.07-25.2,19.32-25,38-20.87,41.7C685.1,1291.44,699.41,1284.42,702.39,1283.07Z" transform="translate(-238.19 -46.11)"/><path class="cls-1" d="M504,1262.25c85.12,77.22,103.63,201,90.48,310.5-.36,2.49-4.2,2-4.29-.36-1-24.78-1.13-49.37-2.14-73.85-.49-1.11-.9-2.14-1.4-3.24-22-14.76-42.36-31.61-55.49-55.25-14.72-26.43-21.27-56.63-32.82-84.38-1.08-2.66,1.82-2,3.76-.66,51.31,34.91,68.73,73.93,85.07,126.32-1.72-27.45-4.86-54.85-11.82-82.1-12.69-49.83-35.93-98.81-73.44-134.72C500.53,1263.14,502.55,1260.88,504,1262.25Z" transform="translate(-238.19 -46.11)"/><path class="cls-2" d="M489,1272.21c-14.1,1-22.09,23.91-32.84,30.91-5.69,3.73-11.37,3.73-15.67-1.85-11.49-14.8,2.76-34.15,16.42-45.18-9.9,4.52-18,12.1-28.73,14.58-6.53,1.45-11.72-.79-13.51-7.41-5.57-20.56,20.1-30.78,37.94-31.9-8.89-5.68-34.31-21.1-21.44-29.64,13-8.58,43,13.69,52.83,21,14.39,10.79,31.67,27.07,33,44.76C518.54,1288.16,500,1276.13,489,1272.21Z" transform="translate(-238.19 -46.11)"/><path class="cls-3" d="M493.18,1275.53c-18.37-7.52-52.59,5.61-55.8-1.11-6.51-13.67,20.84-24.27,35.73-26.68-13.92-3.21-40.54-8.15-40.23-21.47.37-16.25,40.39-3.81,61,10.76,25.92,18.35,26.46,37,22.44,40.87C510.77,1283.24,496.21,1276.77,493.18,1275.53Z" transform="translate(-238.19 -46.11)"/><path class="cls-1" d="M591.07,1466.18c6.28,40.69,14.07,82.77,26.42,122.09,1.18,3.58,6.5,2.66,6-1.2-5.59-37.63-15.78-74.55-21.37-112.18-5.68-38.06-8.72-76.66-6.54-115.16,3.59-63.4,20.8-130.84,62.17-180.44.91-1.18-1-2.84-2-1.75-82.82,96.57-69.64,215-69.57,225.59-11.72-40-23.81-85.81-68.16-126.52-1.91-1.76-3.41-.92-3.09,2.06,7.94,74.15,28.55,112.87,71.54,152.51C587.68,1442.94,589.2,1454.63,591.07,1466.18Z" transform="translate(-238.19 -46.11)"/><path class="cls-2" d="M658.45,1190.39c14.9-6.61,35.45,12.36,50.19,13.65,7.81.71,13.59-2.37,14.94-10.39,3.66-21.29-21.33-33.25-41.22-37.07,12.53-.77,24.85,2.58,37.15-.75,7.43-2.06,11.5-7.16,9.73-14.86-5.49-24-37.16-20.42-55.91-11.88,5.95-10.61,23.47-40.09,5.74-41.8-17.94-1.66-36.38,37.29-42.36,50.07-8.79,18.78-17.54,44.74-9.27,63.44C637,1222.68,649.35,1200.36,658.45,1190.39Z" transform="translate(-238.19 -46.11)"/><path class="cls-3" d="M656,1196.06c14.61-17.61,56.56-22.81,56.18-31.39-.8-17.45-34.37-13.39-50.83-7.78,12.42-10.81,36.83-30.28,29.29-43.66-9.2-16.35-43.17,18-56.2,44-16.42,32.74-6.87,52-.66,53.77C642.24,1213.45,653.55,1199,656,1196.06Z" transform="translate(-238.19 -46.11)"/><path class="cls-2" d="M536.57,1488.5l-36.52,279.1H722.33c-4.58-24.73-46-279.43-46-279.43Z" transform="translate(-238.19 -46.11)"/><rect class="cls-3" x="2704.22" y="605.39" width="158.95" height="67.17" transform="translate(5329.2 1231.84) rotate(180)"/><rect class="cls-3" x="2792.89" y="520.7" width="158.95" height="67.17" transform="translate(5506.53 1062.46) rotate(180)"/><rect class="cls-3" x="2615.55" y="520.7" width="158.95" height="67.17" transform="translate(5151.86 1062.46) rotate(180)"/><rect class="cls-3" x="326.86" y="1471.68" width="158.95" height="67.17" transform="translate(574.48 2964.42) rotate(180)"/><rect class="cls-3" x="238.19" y="1386.99" width="158.95" height="67.17" transform="translate(397.14 2795.03) rotate(180)"/><rect class="cls-3" x="2792.89" y="1471.61" width="158.95" height="67.17" transform="translate(5506.53 2964.28) rotate(180)"/><rect class="cls-3" x="531.04" width="158.95" height="67.17"/><rect class="cls-3" x="442.38" y="84.69" width="158.95" height="67.17"/><polygon class="cls-4" points="204.05 1721.26 1356.82 1720.76 2509.59 1721.26 1356.82 1721.76 204.05 1721.26"/><path class="cls-5" d="M1135.25,914.17c0-.07,0-.07-.07-.07a57.81,57.81,0,0,0-5-5c0-.06,0-.06-.07-.06a57.69,57.69,0,0,0-4.94-5c0-.07,0-.07-.07-.07a57.81,57.81,0,0,0-5-5c0-.06,0-.06-.07-.06a56.4,56.4,0,0,0-5-4.95c0-.07,0-.07-.06-.07a57.81,57.81,0,0,0-4.95-4.95c0-.06,0-.06-.07-.06a56.4,56.4,0,0,0-4.95-4.95c0-.07,0-.07-.06-.07a57.81,57.81,0,0,0-4.95-5c0-.07,0-.07-.07-.07a57.69,57.69,0,0,0-5-4.94c0-.07,0-.07-.06-.07a57.81,57.81,0,0,0-5-5c0-.07,0-.07-.07-.07a73.47,73.47,0,0,0-17.59-14.11V359.46c0-2.61-1.27-3.95-1.27-6.56,0-3.94,0-5.28-1.33-7.89,0-1.33-1.28-3.94-1.28-5.28-1.33-3.94-1.33-5.28-2.67-7.89a9.83,9.83,0,0,1-2.61-5.28A34.34,34.34,0,0,0,1058,320c-1.34-1.33-2.61-3.94-4-5.28l-5.28-5.28c0-.81-1-1.61-2.14-2.14l-2.61-2.61-.27-.27c0-.8-1-1.6-2.14-2.14l-2.6-2.61-.27-.26c0-.81-1-1.61-2.14-2.14l-2.61-2.61-.27-.27c0-.8-1-1.6-2.14-2.14l-2.6-2.61-.27-.26c0-.81-1-1.61-2.14-2.14l-2.61-2.61-.27-.27c0-.8-1-1.61-2.14-2.14l-2.61-2.61-.26-.27c0-.8-1-1.6-2.14-2.14l-2.61-2.6-.27-.27c0-.8-1-1.61-2.14-2.14l-2.61-2.61-.26-.27c0-.8-1-1.6-2.14-2.14l-2.61-2.6-.27-.27c0-.8-1-1.61-2.14-2.14l-2.87-2.88c0-1.27-2.61-2.61-4-2.61a1.26,1.26,0,0,0-1.27-1.33c-2.68-1.27-4-2.61-6.62-4-1.34-1.34-3.95-2.61-6.55-5.28-1.34,0-4-1.27-5.29-1.27-2.61-1.34-6.62-1.34-7.89-2.68a12.49,12.49,0,0,1-6.62-1.27H938.11c-1.34,1.27-4,1.27-5.29,1.27-3.94,1.34-6.55,1.34-7.89,2.68-2.61,0-3.94,1.27-5.28,3.94-3.95,0-5.22,1.27-7.89,2.61-1.27,1.34-4,2.68-5.29,4s-2.6,2.67-6.55,3.94a17,17,0,0,1-3.94,5.29c-1.34,1.33-1.34,2.6-2.61,2.6l-487,605.47C382.79,902.4,385,943.93,413,969.47a44.07,44.07,0,0,0,5,5,44.72,44.72,0,0,0,5,5,44.07,44.07,0,0,0,5,5,44.81,44.81,0,0,0,5,5,44.81,44.81,0,0,0,5,5,44.81,44.81,0,0,0,5,5,44.81,44.81,0,0,0,5,5,44.07,44.07,0,0,0,5,5,44.72,44.72,0,0,0,5,5,70.39,70.39,0,0,0,10.3,9.5c13.17,11.84,29,15.78,44.74,15.78H877.59v49.89c0,21.8,9,40.92,23.53,54l.21.2c1.53,1.67,3.14,3.28,4.81,4.82.07.06.13.06.13.13a66.2,66.2,0,0,0,4.89,4.88l.2.2c1.53,1.67,3.14,3.28,4.81,4.82.07.06.13.06.13.13a66.2,66.2,0,0,0,4.89,4.88l.2.2c1.53,1.68,3.14,3.28,4.81,4.82.07.07.14.07.14.13a64.19,64.19,0,0,0,4.88,4.88l.2.2c1.54,1.68,3.14,3.28,4.81,4.82.07.07.14.07.14.13a64.19,64.19,0,0,0,4.88,4.88l.2.21q2.31,2.5,4.81,4.81c.07.07.14.07.14.13a72,72,0,0,0,53.7,23.28c40.79,0,72.35-31.63,72.35-72.43v-100h13.18c40.79,0,73.69-31.56,73.69-72.36A71.89,71.89,0,0,0,1135.25,914.17ZM877.59,632.3V845H706.19Z" transform="translate(-238.19 -46.11)"/><path class="cls-6" d="M1135.25,914.17c0-.07,0-.07-.07-.07a57.81,57.81,0,0,0-5-5c0-.06,0-.06-.07-.06a57.69,57.69,0,0,0-4.94-5c0-.07,0-.07-.07-.07a57.81,57.81,0,0,0-5-5c0-.06,0-.06-.07-.06a56.4,56.4,0,0,0-5-4.95c0-.07,0-.07-.06-.07a57.81,57.81,0,0,0-4.95-4.95c0-.06,0-.06-.07-.06a56.4,56.4,0,0,0-4.95-4.95c0-.07,0-.07-.06-.07a57.81,57.81,0,0,0-4.95-5c0-.07,0-.07-.07-.07a57.69,57.69,0,0,0-5-4.94c0-.07,0-.07-.06-.07a57.81,57.81,0,0,0-5-5c0-.07,0-.07-.07-.07a73.47,73.47,0,0,0-17.59-14.11V359.46c0-2.61-1.27-3.95-1.27-6.56,0-3.94,0-5.28-1.33-7.89,0-1.33-1.28-3.94-1.28-5.28-1.33-3.94-1.33-5.28-2.67-7.89a9.83,9.83,0,0,1-2.61-5.28A34.34,34.34,0,0,0,1058,320c-1.34-1.33-2.61-3.94-4-5.28l-5.28-5.28c0-.81-1-1.61-2.14-2.14l-2.61-2.61-.27-.27c0-.8-1-1.6-2.14-2.14l-2.6-2.61-.27-.26c0-.81-1-1.61-2.14-2.14l-2.61-2.61-.27-.27c0-.8-1-1.6-2.14-2.14l-2.6-2.61-.27-.26c0-.81-1-1.61-2.14-2.14l-2.61-2.61-.27-.27c0-.8-1-1.61-2.14-2.14l-2.61-2.61-.26-.27c0-.8-1-1.6-2.14-2.14l-2.61-2.6-.27-.27c0-.8-1-1.61-2.14-2.14l-2.61-2.61-.26-.27c0-.8-1-1.6-2.14-2.14l-2.61-2.6-.27-.27c0-.8-1-1.61-2.14-2.14l-2.87-2.88c0-1.27-2.61-2.61-4-2.61a1.26,1.26,0,0,0-1.27-1.33c-2.68-1.27-4-2.61-6.62-4-1.34-1.34-3.95-2.61-6.55-5.28-1.34,0-4-1.27-5.29-1.27-2.61-1.34-6.62-1.34-7.89-2.68a12.49,12.49,0,0,1-6.62-1.27H938.11c-1.34,1.27-4,1.27-5.29,1.27-3.94,1.34-6.55,1.34-7.89,2.68-2.61,0-3.94,1.27-5.28,3.94-3.95,0-5.22,1.27-7.89,2.61-1.27,1.34-4,2.68-5.29,4s-2.6,2.67-6.55,3.94a17,17,0,0,1-3.94,5.29c-1.34,1.33-1.34,2.6-2.61,2.6l-487,605.47C382.79,902.4,385,943.93,413,969.47a44.07,44.07,0,0,0,5,5,44.72,44.72,0,0,0,5,5,44.07,44.07,0,0,0,5,5,44.81,44.81,0,0,0,5,5,44.81,44.81,0,0,0,5,5,44.81,44.81,0,0,0,5,5,44.81,44.81,0,0,0,5,5,44.07,44.07,0,0,0,5,5,44.72,44.72,0,0,0,5,5,70.39,70.39,0,0,0,10.3,9.5c13.17,11.84,29,15.78,44.74,15.78H877.59v49.89c0,21.8,9,40.92,23.53,54l.21.2c1.53,1.67,3.14,3.28,4.81,4.82.07.06.13.06.13.13a66.2,66.2,0,0,0,4.89,4.88l.2.2c1.53,1.67,3.14,3.28,4.81,4.82.07.06.13.06.13.13a66.2,66.2,0,0,0,4.89,4.88l.2.2c1.53,1.68,3.14,3.28,4.81,4.82.07.07.14.07.14.13a64.19,64.19,0,0,0,4.88,4.88l.2.2c1.54,1.68,3.14,3.28,4.81,4.82.07.07.14.07.14.13a64.19,64.19,0,0,0,4.88,4.88l.2.21q2.31,2.5,4.81,4.81c.07.07.14.07.14.13a72,72,0,0,0,53.7,23.28c40.79,0,72.35-31.63,72.35-72.43v-100h13.18c40.79,0,73.69-31.56,73.69-72.36A71.89,71.89,0,0,0,1135.25,914.17ZM877.59,632.3V845H706.19Z" transform="translate(-238.19 -46.11)"/><path class="cls-5" d="M1109.19,917.38c0,40.8-32.9,72.38-73.71,72.38h-13.15v100c0,40.8-31.59,72.38-72.38,72.38s-72.39-31.58-72.39-72.38v-100H463c-15.8,0-31.59-3.94-44.76-15.79-32.9-25-36.84-69.75-11.84-101.35l487-605.42c1.32,0,1.32-1.32,2.63-2.63a18.3,18.3,0,0,0,4-5.27,14.15,14.15,0,0,0,6.57-4c1.31-1.31,4-2.63,5.27-3.95,2.63-1.31,4-2.63,7.88-2.63,1.32-2.63,2.64-4,5.27-4,1.32-1.31,4-1.31,7.91-2.63,1.32,0,3.94,0,5.25-1.32h22.38c2.64,1.32,3.95,1.32,6.59,1.32,1.3,1.32,5.25,1.32,7.89,2.63,1.32,0,3.95,1.32,5.27,1.32,2.63,2.63,5.25,4,6.57,5.26,2.63,1.32,4,2.64,6.59,3.95a1.29,1.29,0,0,1,1.31,1.32c1.32,0,3.95,1.31,3.95,2.63,2.64,2.63,3.94,3.95,5.26,5.27s2.63,3.94,4,5.26a36.13,36.13,0,0,1,5.27,6.58c0,1.32,1.32,3.95,2.64,5.27,1.31,2.63,1.31,3.94,2.63,7.9,0,1.3,1.3,3.94,1.3,5.26,1.32,2.63,1.32,3.94,1.32,7.89,0,2.64,1.32,4,1.32,6.58V845h13.15C1076.29,845,1109.19,877.89,1109.19,917.38ZM877.56,519.9,615.64,845H877.56Z" transform="translate(-238.19 -46.11)"/><path class="cls-5" d="M1879.1,437.1a372.49,372.49,0,0,0-51.49-62.66,23.59,23.59,0,0,0-2.27-2.21,6,6,0,0,0-.67-.67,26.39,26.39,0,0,0-1.87-1.94c-1.68-1.8-3.48-3.47-5.22-5.21a1.89,1.89,0,0,0-.47-.4l-1.8-1.81a8.46,8.46,0,0,0-.67-.67,26.52,26.52,0,0,0-1.88-1.94c-1.67-1.8-3.47-3.48-5.21-5.21a2.81,2.81,0,0,0-.47-.41l-1.81-1.8a6.9,6.9,0,0,0-.66-.67,26.52,26.52,0,0,0-1.88-1.94c-1.67-1.8-3.47-3.48-5.21-5.22a3.24,3.24,0,0,0-.47-.4l-1.81-1.8a6,6,0,0,0-.67-.67,24.47,24.47,0,0,0-1.87-1.94c-1.67-1.81-3.47-3.48-5.21-5.22a3.24,3.24,0,0,0-.47-.4,14.64,14.64,0,0,0-1.81-1.8,6,6,0,0,0-.67-.67c-52.83-54.5-121.77-90.55-199.08-90.55-104,0-189.51,61.86-244.82,146.05-57.91,84.26-88.14,193.53-89.47,314.57,1.33,119.77,31.56,230.31,89.47,314.57a390.59,390.59,0,0,0,51,61.79c.87.87,1.74,1.68,2.61,2.55a.81.81,0,0,1,.33.33c1.54,1.6,3.14,3.14,4.68,4.68.8.87,1.61,1.67,2.41,2.48s1.74,1.67,2.61,2.54a.81.81,0,0,1,.33.33c1.54,1.61,3.15,3.14,4.68,4.68.81.87,1.61,1.67,2.41,2.48s1.74,1.67,2.61,2.54a.75.75,0,0,1,.33.33c1.54,1.61,3.15,3.15,4.68,4.68.81.87,1.61,1.67,2.41,2.48s1.74,1.67,2.61,2.54a.81.81,0,0,1,.33.33c1.54,1.61,3.15,3.15,4.68,4.68.81.87,1.61,1.68,2.41,2.48s1.74,1.67,2.61,2.54a.81.81,0,0,1,.33.33c1.54,1.61,3.15,3.15,4.69,4.68,52,52,119.1,86.81,196.27,86.81,101.31,0,188.18-63.2,243.48-146.12,56.58-84.26,88.21-194.8,88.21-314.57C1967.31,630.63,1935.68,521.36,1879.1,437.1ZM1707.84,934.5c-38.18,56.57-81.58,81.58-122.38,81.58-22.47,0-46.14-7.55-69.41-23.87-1.87-2.41-3.68-5-5.48-7.56-36.85-55.3-63.2-139.49-63.2-233,0-94.76,26.35-177.68,63.2-234.26,39.52-55.3,84.26-81.58,125-80.31,21.66-.67,44.07,6.42,66.07,21.6,2.07,2.81,4.14,5.61,6.15,8.56,36.85,56.57,63.2,139.49,63.2,234.25C1771,795,1744.69,879.19,1707.84,934.5Z" transform="translate(-238.19 -46.11)"/><path class="cls-6" d="M1879.1,437.1a372.49,372.49,0,0,0-51.49-62.66,23.59,23.59,0,0,0-2.27-2.21,6,6,0,0,0-.67-.67,26.39,26.39,0,0,0-1.87-1.94c-1.68-1.8-3.48-3.47-5.22-5.21a1.89,1.89,0,0,0-.47-.4l-1.8-1.81a8.46,8.46,0,0,0-.67-.67,26.52,26.52,0,0,0-1.88-1.94c-1.67-1.8-3.47-3.48-5.21-5.21a2.81,2.81,0,0,0-.47-.41l-1.81-1.8a6.9,6.9,0,0,0-.66-.67,26.52,26.52,0,0,0-1.88-1.94c-1.67-1.8-3.47-3.48-5.21-5.22a3.24,3.24,0,0,0-.47-.4l-1.81-1.8a6,6,0,0,0-.67-.67,24.47,24.47,0,0,0-1.87-1.94c-1.67-1.81-3.47-3.48-5.21-5.22a3.24,3.24,0,0,0-.47-.4,14.64,14.64,0,0,0-1.81-1.8,6,6,0,0,0-.67-.67c-52.83-54.5-121.77-90.55-199.08-90.55-104,0-189.51,61.86-244.82,146.05-57.91,84.26-88.14,193.53-89.47,314.57,1.33,119.77,31.56,230.31,89.47,314.57a390.59,390.59,0,0,0,51,61.79c.87.87,1.74,1.68,2.61,2.55a.81.81,0,0,1,.33.33c1.54,1.6,3.14,3.14,4.68,4.68.8.87,1.61,1.67,2.41,2.48s1.74,1.67,2.61,2.54a.81.81,0,0,1,.33.33c1.54,1.61,3.15,3.14,4.68,4.68.81.87,1.61,1.67,2.41,2.48s1.74,1.67,2.61,2.54a.75.75,0,0,1,.33.33c1.54,1.61,3.15,3.15,4.68,4.68.81.87,1.61,1.67,2.41,2.48s1.74,1.67,2.61,2.54a.81.81,0,0,1,.33.33c1.54,1.61,3.15,3.15,4.68,4.68.81.87,1.61,1.68,2.41,2.48s1.74,1.67,2.61,2.54a.81.81,0,0,1,.33.33c1.54,1.61,3.15,3.15,4.69,4.68,52,52,119.1,86.81,196.27,86.81,101.31,0,188.18-63.2,243.48-146.12,56.58-84.26,88.21-194.8,88.21-314.57C1967.31,630.63,1935.68,521.36,1879.1,437.1ZM1707.84,934.5c-38.18,56.57-81.58,81.58-122.38,81.58-22.47,0-46.14-7.55-69.41-23.87-1.87-2.41-3.68-5-5.48-7.56-36.85-55.3-63.2-139.49-63.2-233,0-94.76,26.35-177.68,63.2-234.26,39.52-55.3,84.26-81.58,125-80.31,21.66-.67,44.07,6.42,66.07,21.6,2.07,2.81,4.14,5.61,6.15,8.56,36.85,56.57,63.2,139.49,63.2,234.25C1771,795,1744.69,879.19,1707.84,934.5Z" transform="translate(-238.19 -46.11)"/><path class="cls-5" d="M1251.16,701.53c1.31-121.09,31.58-230.33,89.5-314.56,55.27-84.24,140.82-146.1,244.8-146.1,101.35,0,188.2,61.86,243.5,146.1,56.58,84.23,88.17,193.47,88.17,314.56,0,119.76-31.59,230.32-88.17,314.55-55.3,82.93-142.15,146.1-243.5,146.1-104,0-189.53-63.17-244.8-146.1C1282.74,931.85,1252.47,821.29,1251.16,701.53Zm519.87,0c0-94.77-26.32-177.68-63.18-234.28-38.17-55.28-81.59-81.6-122.39-80.28-40.81-1.32-85.56,25-125,80.28-36.85,56.6-63.19,139.51-63.19,234.28,0,93.45,26.34,177.68,63.19,233,39.47,56.59,84.22,81.59,125,81.59s84.22-25,122.39-81.59C1744.71,879.21,1771,795,1771,701.53Z" transform="translate(-238.19 -46.11)"/><path class="cls-5" d="M2775.78,914.17c0-.07,0-.07-.07-.07-1.6-1.74-3.27-3.41-4.94-5,0-.06,0-.06-.07-.06-1.61-1.74-3.28-3.41-4.95-5,0-.07,0-.07-.07-.07-1.6-1.74-3.27-3.41-4.95-5,0-.06,0-.06-.06-.06-1.61-1.74-3.28-3.41-5-4.95,0-.07,0-.07-.07-.07-1.6-1.74-3.27-3.41-5-4.95,0-.06,0-.06-.06-.06-1.61-1.74-3.28-3.42-4.95-4.95,0-.07,0-.07-.07-.07-1.6-1.74-3.27-3.41-4.95-5,0-.07,0-.07-.06-.07-1.61-1.73-3.28-3.41-5-4.94,0-.07,0-.07-.07-.07-1.6-1.74-3.28-3.41-5-5,0-.07,0-.07-.07-.07a72.33,72.33,0,0,0-17.65-14.11V359.46c0-2.61-1.27-3.95-1.27-6.56,0-3.94,0-5.28-1.34-7.89,0-1.33-1.27-3.94-1.27-5.28-1.34-3.94-1.34-5.28-2.67-7.89-1.27-1.34-2.61-3.95-2.61-5.28a32.45,32.45,0,0,0-5.28-6.56c-1.34-1.33-2.61-3.94-3.95-5.28l-5.28-5.28c0-.81-1-1.61-2.14-2.14l-2.61-2.61-.27-.27c0-.8-1-1.6-2.14-2.14l-2.61-2.61-.26-.26c0-.81-1-1.61-2.14-2.14l-2.61-2.61-.27-.27c0-.8-1-1.6-2.14-2.14l-2.61-2.61-.26-.26c0-.81-1-1.61-2.14-2.14l-2.61-2.61-.27-.27c0-.8-1-1.61-2.14-2.14l-2.61-2.61-.27-.27c0-.8-1-1.6-2.13-2.14l-2.61-2.6-.27-.27c0-.8-1-1.61-2.14-2.14l-2.61-2.61-.27-.27c0-.8-1-1.6-2.14-2.14-.66-.67-1.53-1.53-2.6-2.6l-.27-.27c0-.8-1-1.61-2.14-2.14l-2.88-2.88c0-1.27-2.61-2.61-3.94-2.61a1.31,1.31,0,0,0-1.34-1.33c-2.61-1.27-3.95-2.61-6.55-4-1.34-1.34-4-2.61-6.56-5.28-1.33,0-3.94-1.27-5.28-1.27-2.61-1.34-6.55-1.34-7.89-2.68-2.68,0-4,0-6.62-1.27h-22.34c-1.33,1.27-3.94,1.27-5.28,1.27-3.95,1.34-6.55,1.34-7.89,2.68-2.61,0-4,1.27-5.28,3.94-3.88,0-5.22,1.27-7.9,2.61-1.27,1.34-3.94,2.68-5.21,4a14,14,0,0,1-6.62,3.94,18,18,0,0,1-3.95,5.29c-1.33,1.33-1.33,2.6-2.61,2.6l-487,605.47c-23.61,29.76-21.4,71.29,6.55,96.83a44.81,44.81,0,0,0,5,5,7117.11,7117.11,0,0,1,10,10,44,44,0,0,0,5,5,44.81,44.81,0,0,0,5,5,44,44,0,0,0,5,5,3556.78,3556.78,0,0,1,10,10,44.81,44.81,0,0,0,5,5,70.39,70.39,0,0,0,10.3,9.5c13.17,11.84,28.95,15.78,44.74,15.78h364.45v49.89c0,21.73,9,40.92,23.54,54,.07.07.14.07.14.13a66.23,66.23,0,0,0,4.88,4.89l.2.2q2.31,2.51,4.81,4.81c.07.07.14.07.14.14a68.08,68.08,0,0,0,4.88,4.88l.2.2q2.31,2.51,4.81,4.81c.07.07.14.07.14.14a68.08,68.08,0,0,0,4.88,4.88l.2.2c1.54,1.67,3.14,3.28,4.81,4.81.07.07.14.07.14.14a68.08,68.08,0,0,0,4.88,4.88l.2.2c1.54,1.67,3.14,3.28,4.82,4.81.06.07.13.07.13.14a68.08,68.08,0,0,0,4.88,4.88l.2.2c13.11,14.38,32,23.21,53.63,23.21,40.8,0,72.36-31.63,72.36-72.43v-100h13.17c40.86,0,73.77-31.56,73.77-72.36A71.9,71.9,0,0,0,2775.78,914.17ZM2518.05,632.3V845H2346.66Z" transform="translate(-238.19 -46.11)"/><path class="cls-6" d="M2775.78,914.17c0-.07,0-.07-.07-.07-1.6-1.74-3.27-3.41-4.94-5,0-.06,0-.06-.07-.06-1.61-1.74-3.28-3.41-4.95-5,0-.07,0-.07-.07-.07-1.6-1.74-3.27-3.41-4.95-5,0-.06,0-.06-.06-.06-1.61-1.74-3.28-3.41-5-4.95,0-.07,0-.07-.07-.07-1.6-1.74-3.27-3.41-5-4.95,0-.06,0-.06-.06-.06-1.61-1.74-3.28-3.42-4.95-4.95,0-.07,0-.07-.07-.07-1.6-1.74-3.27-3.41-4.95-5,0-.07,0-.07-.06-.07-1.61-1.73-3.28-3.41-5-4.94,0-.07,0-.07-.07-.07-1.6-1.74-3.28-3.41-5-5,0-.07,0-.07-.07-.07a72.33,72.33,0,0,0-17.65-14.11V359.46c0-2.61-1.27-3.95-1.27-6.56,0-3.94,0-5.28-1.34-7.89,0-1.33-1.27-3.94-1.27-5.28-1.34-3.94-1.34-5.28-2.67-7.89-1.27-1.34-2.61-3.95-2.61-5.28a32.45,32.45,0,0,0-5.28-6.56c-1.34-1.33-2.61-3.94-3.95-5.28l-5.28-5.28c0-.81-1-1.61-2.14-2.14l-2.61-2.61-.27-.27c0-.8-1-1.6-2.14-2.14l-2.61-2.61-.26-.26c0-.81-1-1.61-2.14-2.14l-2.61-2.61-.27-.27c0-.8-1-1.6-2.14-2.14l-2.61-2.61-.26-.26c0-.81-1-1.61-2.14-2.14l-2.61-2.61-.27-.27c0-.8-1-1.61-2.14-2.14l-2.61-2.61-.27-.27c0-.8-1-1.6-2.13-2.14l-2.61-2.6-.27-.27c0-.8-1-1.61-2.14-2.14l-2.61-2.61-.27-.27c0-.8-1-1.6-2.14-2.14-.66-.67-1.53-1.53-2.6-2.6l-.27-.27c0-.8-1-1.61-2.14-2.14l-2.88-2.88c0-1.27-2.61-2.61-3.94-2.61a1.31,1.31,0,0,0-1.34-1.33c-2.61-1.27-3.95-2.61-6.55-4-1.34-1.34-4-2.61-6.56-5.28-1.33,0-3.94-1.27-5.28-1.27-2.61-1.34-6.55-1.34-7.89-2.68-2.68,0-4,0-6.62-1.27h-22.34c-1.33,1.27-3.94,1.27-5.28,1.27-3.95,1.34-6.55,1.34-7.89,2.68-2.61,0-4,1.27-5.28,3.94-3.88,0-5.22,1.27-7.9,2.61-1.27,1.34-3.94,2.68-5.21,4a14,14,0,0,1-6.62,3.94,18,18,0,0,1-3.95,5.29c-1.33,1.33-1.33,2.6-2.61,2.6l-487,605.47c-23.61,29.76-21.4,71.29,6.55,96.83a44.81,44.81,0,0,0,5,5,7117.11,7117.11,0,0,1,10,10,44,44,0,0,0,5,5,44.81,44.81,0,0,0,5,5,44,44,0,0,0,5,5,3556.78,3556.78,0,0,1,10,10,44.81,44.81,0,0,0,5,5,70.39,70.39,0,0,0,10.3,9.5c13.17,11.84,28.95,15.78,44.74,15.78h364.45v49.89c0,21.73,9,40.92,23.54,54,.07.07.14.07.14.13a66.23,66.23,0,0,0,4.88,4.89l.2.2q2.31,2.51,4.81,4.81c.07.07.14.07.14.14a68.08,68.08,0,0,0,4.88,4.88l.2.2q2.31,2.51,4.81,4.81c.07.07.14.07.14.14a68.08,68.08,0,0,0,4.88,4.88l.2.2c1.54,1.67,3.14,3.28,4.81,4.81.07.07.14.07.14.14a68.08,68.08,0,0,0,4.88,4.88l.2.2c1.54,1.67,3.14,3.28,4.82,4.81.06.07.13.07.13.14a68.08,68.08,0,0,0,4.88,4.88l.2.2c13.11,14.38,32,23.21,53.63,23.21,40.8,0,72.36-31.63,72.36-72.43v-100h13.17c40.86,0,73.77-31.56,73.77-72.36A71.9,71.9,0,0,0,2775.78,914.17ZM2518.05,632.3V845H2346.66Z" transform="translate(-238.19 -46.11)"/><path class="cls-5" d="M2749.67,917.38c0,40.8-32.9,72.38-73.71,72.38h-13.17v100c0,40.8-31.59,72.38-72.36,72.38S2518,1130.6,2518,1089.8v-100h-414.6c-15.81,0-31.59-3.94-44.76-15.79-32.91-25-36.86-69.75-11.83-101.35l487-605.42c1.32,0,1.32-1.32,2.64-2.63a18.47,18.47,0,0,0,4-5.27,14.13,14.13,0,0,0,6.59-4c1.31-1.31,4-2.63,5.27-3.95,2.63-1.31,3.95-2.63,7.87-2.63,1.32-2.63,2.63-4,5.27-4,1.32-1.31,3.95-1.31,7.9-2.63,1.32,0,3.95,0,5.27-1.32h22.36c2.64,1.32,4,1.32,6.59,1.32,1.32,1.32,5.27,1.32,7.91,2.63,1.31,0,4,1.32,5.27,1.32,2.63,2.63,5.23,4,6.55,5.26,2.64,1.32,3.95,2.64,6.59,3.95a1.29,1.29,0,0,1,1.32,1.32c1.31,0,4,1.31,4,2.63l5.27,5.27c1.31,1.31,2.63,3.94,3.95,5.26a36.58,36.58,0,0,1,5.27,6.58c0,1.32,1.32,3.95,2.63,5.27,1.32,2.63,1.32,3.94,2.64,7.9,0,1.3,1.28,3.94,1.28,5.26,1.32,2.63,1.32,3.94,1.32,7.89,0,2.64,1.32,4,1.32,6.58V845H2676C2716.77,845,2749.67,877.89,2749.67,917.38ZM2518,519.9,2256.1,845H2518Z" transform="translate(-238.19 -46.11)"/><path class="cls-4" d="M1776.68,991.41c-.36,2.86,1.17,5.94,3.91,6.55,6.35,1,14,2,22.55,3.19,25.37-55.11,51.3-98.5,44-81.36-10.58,24.8-20,60.91-21.82,84.39,10,1.32,33,4.14,44.59,5.55,26.52-98.33,55.73-170.58,52.29-147.88-13.88,91.51-11.43,121.42-8.27,153.4,107.64,13.07,249,28.55,351.42,37.4,16.77-54.21,32.45-113.06,33.88-108.77,11.21,32.12,11,77.51,8.19,112.29,32.64,2.57,58.79,4,74.8,4,0,0,11.76-45.75,14.22-60.9a339,339,0,0,0-1.1-116.79c-7.41-39.36-23.15-74.78-37.83-111a3.31,3.31,0,0,0-.37-.8c0-.11-.06-.15-.12-.3-10-25-17-48.83-20.88-73.76a1.88,1.88,0,0,1-.12-.57,334.7,334.7,0,0,1-3.52-55.76c1.3-68.33-29.28-129.7-87.47-151.93-99.32-101.51-235.76-54.91-274.29,30.9l-.12.32c-15.07,38.46-30,88.72-43.07,127.44a.16.16,0,0,1-.08.22c.06.15,0,.26-.15.43l0,.11c-6.38,18.44-12.2,34.09-17.48,44.57C1874.94,761.24,1806.14,796.87,1776.68,991.41Z" transform="translate(-238.19 -46.11)"/><path class="cls-4" d="M2269.41,509c37.28,24.67,58.49,58.33,60.14,108.39,1,29.18.24,57.54,8.2,85.59,8.2,28.95,23.12,53.28,38.52,77.62,24.46,38.67,40.54,76.57,40.5,125.59-.05,49.78-7.48,108-27.22,153a.2.2,0,1,1-.36-.17c16.83-45.88,22.95-110.63,19.52-160.21-3.76-54.46-29.25-90.38-54.78-133.4-20.28-34.18-31.84-71.17-33.08-113-.73-24.74,1.89-50.24-5.28-74-8.56-28.37-29-47.5-49.39-64.63C2263.4,511.45,2266.57,507.09,2269.41,509Z" transform="translate(-238.19 -46.11)"/><path class="cls-4" d="M1837.25,763.69c31.12-36.56,62.88-67.34,83.37-114,18.67-42.52,31.23-88,50.16-130.42a.53.53,0,1,1,1,.4c-30.08,75.63-41.53,153.31-94,215-28.53,33.49-56.82,64.4-77.34,105.56-21.56,43.25-33.26,89-38.78,137.9-.19,1.71-2.23,1.46-2.23-.18C1759.47,898.18,1788.37,821.09,1837.25,763.69Z" transform="translate(-238.19 -46.11)"/><path class="cls-7" d="M1535.17,1694.94s289.55,78.54,337.45,69.88,209.59-226,245.52-305,95.47-471.6,83.87-514.8-71.4-43.85-122,67.58-170.13,356.28-191.42,376.24S1511.65,1674.31,1535.17,1694.94Z" transform="translate(-238.19 -46.11)"/><path class="cls-7" d="M1847.47,1739c-44.42-23.27-98.52-79.59-135.33-85.48-33.23-5.32-46.06,22-46.06,22s-16.95-37.62-51.23-37.46c-17.64.08-33,28.33-33,28.33s-14.9-29.55-45.38-27.53c-24.28,1.61-36,29.68-36,29.68s-27.51-21.69-51.73-12.12c-49.09,19.42-57.3,228.17,18.32,263.44,35.25,16.44,34.49-34.66,34.49-34.66s18.84,73.21,61.83,76,38-63.53,38-63.53,18.88,70.79,63.74,69.18c46.71-1.66,30.35-67.15,30.35-67.15s29.64,47.65,63.7,38.56c56.26-15-4.18-128,8.5-173.43h70.66Z" transform="translate(-238.19 -46.11)"/><path class="cls-7" d="M1783.36,1694.61c44,18.36,94.2-51.1,139.46-34.93,58.67,21,4.4,93.38-84.54,105.14h-70.66Z" transform="translate(-238.19 -46.11)"/><path class="cls-4" d="M1497.91,1672.7a.55.55,0,0,0-1.07-.25c-19.43,68-19.93,148.67,4.37,215.54.79,2.19,4.7,1.85,4.29-.73C1493.63,1813.55,1489,1747.18,1497.91,1672.7Z" transform="translate(-238.19 -46.11)"/><path class="cls-4" d="M1581.44,1665.35c.1-.8-1.24-1-1.47-.14-19.64,70.18-17.71,161.06,19.37,234.84,1.27,2.53,5,3.52,3.71.5C1582.11,1849.62,1573.06,1732.36,1581.44,1665.35Z" transform="translate(-238.19 -46.11)"/><path class="cls-4" d="M1699.81,1904.22c-32.83-72.12-39.23-147.5-34.68-225.87.06-1-1.39-1-1.67-.16-12.67,37.73-10.37,88-5.27,126.94,4.89,37.31,16.8,70,39.09,100.24C1698.15,1906.54,1700.51,1905.76,1699.81,1904.22Z" transform="translate(-238.19 -46.11)"/><path class="cls-4" d="M1926.27,1654.17c-28.78-9.59-58.39,13.45-82.64,26.31-8,4.22-15.83,9-24.43,11.6-19.18,5.92-33.43,2.18-41.75-3.16-13.44-8.63-55.45-50.48-85.72-36.58-9.45,4.34-20.57,13.14-26,22-9.25-16.78-21-35.1-41.56-38.47a32.52,32.52,0,0,0-25.66,6.66,53.29,53.29,0,0,0-10.1,10.25c-2.65,3.51-5.39,7.33-7,11.49,0-.13-.09-.27-.15-.4-.2-.44-.4-.87-.61-1.3-.42-.85-.84-1.71-1.27-2.56a27.37,27.37,0,0,0-3.25-5,30.66,30.66,0,0,0-3.87-3.94,6.39,6.39,0,0,0-4.43-1.76.47.47,0,0,0-.1.93c1.49.52,2.39,1.9,3.23,3.16,1,1.45,1.86,3,2.87,4.38s2,2.77,3,4.17q.78,1.1,1.5,2.25c.22.36.43.74.66,1.09a9.51,9.51,0,0,0,1,1c.47.57,1.13.27,1.45-.24.07,0,.13.06.19,0,3.28-2.53,5.61-6,8.34-9.09a66.4,66.4,0,0,1,10-9.66c7.12-5.25,15.84-7.77,24.63-6,18.37,3.63,30,19.93,39.83,34.5.07.11.18.12.26.18h0c-.28.49.36.88.75.55,10.09-8.8,19.7-18.74,33.61-20.77,15-2.2,29.24,5,41.66,12.55a185.57,185.57,0,0,1,17.94,12.13c5.1,4,10,8.38,15.42,11.83,23.34,14.7,48.91,3.31,55.29.59,12.72-5.44,24.56-12.31,36.46-19.31,12.08-7.12,24.87-14.16,39-15.8,12.62-1.46,26.71,2.56,34.69,13,4.33,5.65,10,16.21-1.52,40.25-.1.21.17.47.33.31C1944.36,1705.26,1963.44,1666.56,1926.27,1654.17Z" transform="translate(-238.19 -46.11)"/><path class="cls-8" d="M2179.44,1309.74,1906,1266.06s130.64-258.69,209.07-333.73c77.42-74.05,115.15,1.81,103.74,116.23C2206.16,1175.41,2179.44,1309.74,2179.44,1309.74Z" transform="translate(-238.19 -46.11)"/><path class="cls-4" d="M2170.53,1258.82c-7.66-1.81-15.52-3-23.22-4.65-7.48-1.64-15-2.82-22.62-4-15.43-2.41-30.91-4.55-46.38-6.67-30.49-4.18-61-8.82-91.58-12.17-17.39-1.9-34.71-4.53-52.14-6.16-.53-.05-.6.8-.1.92,30.31,7.12,61.22,12.35,91.94,17.36,30.41,5,61,9.66,91.59,13,8.58.93,17.19,2,25.81,2.45,8.81.43,17.72,1.25,26.53,1.39A.76.76,0,0,0,2170.53,1258.82Z" transform="translate(-238.19 -46.11)"/><path class="cls-9" d="M2026.92,1767.37h724.35s-301-747.1-454-856.22c-45.94-32.76-119.11-36.39-168.46,29.39-40.46,53.92-152.75,268.59-157.88,345.8-4.9,77.39,55.46,153.44,55.46,153.44Z" transform="translate(-238.19 -46.11)"/><path class="cls-10" d="M2267,1261.11c1.82-.51,3.63-.73,5.45-1.1a10.9,10.9,0,0,1,13.23,10.6,8.52,8.52,0,0,0,3.9,7.33,9.92,9.92,0,0,0,4.49,1.51c1.82.37,3.64.59,5.45,1.1-1.81.51-3.63.73-5.45,1.11a10.68,10.68,0,0,1-6.08-.59,11.22,11.22,0,0,1-6.81-10.37,8.43,8.43,0,0,0-4.14-7.11,10.65,10.65,0,0,0-4.59-1.38C2270.58,1261.83,2268.77,1261.62,2267,1261.11Z" transform="translate(-238.19 -46.11)"/><path class="cls-10" d="M1990,1261.11c1.82-.51,3.63-.73,5.45-1.1a10.9,10.9,0,0,1,13.23,10.6,8.52,8.52,0,0,0,3.9,7.33,10,10,0,0,0,4.49,1.51c1.82.37,3.64.59,5.46,1.1-1.82.51-3.64.73-5.46,1.11a10.68,10.68,0,0,1-6.08-.59,11.22,11.22,0,0,1-6.81-10.37,8.43,8.43,0,0,0-4.14-7.11,10.65,10.65,0,0,0-4.59-1.38C1993.58,1261.83,1991.77,1261.62,1990,1261.11Z" transform="translate(-238.19 -46.11)"/><path class="cls-10" d="M2367.54,1620.92c1.82-.51,3.64-.72,5.45-1.1a10.91,10.91,0,0,1,13.23,10.61,8.52,8.52,0,0,0,3.9,7.32,10,10,0,0,0,4.49,1.51c1.82.38,3.64.6,5.46,1.11-1.82.51-3.64.73-5.46,1.1a10.56,10.56,0,0,1-6.07-.59,11.21,11.21,0,0,1-6.82-10.37,8.4,8.4,0,0,0-4.14-7.1A10.52,10.52,0,0,0,2373,1622C2371.18,1621.65,2369.36,1621.43,2367.54,1620.92Z" transform="translate(-238.19 -46.11)"/><path class="cls-10" d="M2492.75,1280.55c1.81-.5,3.63-.72,5.45-1.09a10.9,10.9,0,0,1,13.23,10.6,8.5,8.5,0,0,0,3.9,7.32,9.8,9.8,0,0,0,4.49,1.51c1.82.38,3.63.6,5.45,1.11-1.82.51-3.63.73-5.45,1.1a10.67,10.67,0,0,1-6.08-.58,11.23,11.23,0,0,1-6.81-10.38,8.4,8.4,0,0,0-4.14-7.1,10.56,10.56,0,0,0-4.59-1.39C2496.38,1281.28,2494.56,1281.06,2492.75,1280.55Z" transform="translate(-238.19 -46.11)"/><path class="cls-10" d="M2172.65,1097.56c1.82-.51,3.63-.73,5.45-1.1a10.9,10.9,0,0,1,13.23,10.6,8.49,8.49,0,0,0,3.9,7.32,10,10,0,0,0,4.49,1.52c1.82.37,3.64.59,5.45,1.1-1.81.51-3.63.73-5.45,1.1a10.67,10.67,0,0,1-6.08-.58,11.23,11.23,0,0,1-6.81-10.38,8.4,8.4,0,0,0-4.14-7.1,10.66,10.66,0,0,0-4.59-1.39C2176.28,1098.28,2174.47,1098.06,2172.65,1097.56Z" transform="translate(-238.19 -46.11)"/><path class="cls-10" d="M2369.68,1093.43c1.81-.51,3.63-.73,5.45-1.1a10.91,10.91,0,0,1,13.23,10.61,8.52,8.52,0,0,0,3.9,7.32,9.92,9.92,0,0,0,4.49,1.51c1.82.38,3.63.59,5.45,1.1-1.82.52-3.63.73-5.45,1.11a10.67,10.67,0,0,1-6.08-.59,11.22,11.22,0,0,1-6.81-10.37,8.43,8.43,0,0,0-4.14-7.11,10.7,10.7,0,0,0-4.59-1.38C2373.31,1094.16,2371.49,1093.94,2369.68,1093.43Z" transform="translate(-238.19 -46.11)"/><path class="cls-10" d="M2242.14,904.27c1.81-.51,3.63-.73,5.45-1.1a10.88,10.88,0,0,1,13.22,10.6,8.57,8.57,0,0,0,3.9,7.33,10,10,0,0,0,4.5,1.51c1.82.37,3.63.59,5.45,1.1-1.82.51-3.63.73-5.45,1.1a10.67,10.67,0,0,1-6.08-.58,11.22,11.22,0,0,1-6.81-10.38,8.43,8.43,0,0,0-4.14-7.1,10.74,10.74,0,0,0-4.59-1.39C2245.77,905,2244,904.77,2242.14,904.27Z" transform="translate(-238.19 -46.11)"/><path class="cls-10" d="M2124.28,1411.66c1.82-.51,3.64-.73,5.46-1.1a10.88,10.88,0,0,1,13.22,10.6,8.54,8.54,0,0,0,3.9,7.32,9.89,9.89,0,0,0,4.5,1.52c1.81.37,3.63.59,5.45,1.1-1.82.51-3.64.73-5.45,1.1a10.66,10.66,0,0,1-6.08-.58,11.23,11.23,0,0,1-6.82-10.38,8.4,8.4,0,0,0-4.13-7.1,10.74,10.74,0,0,0-4.59-1.39C2127.92,1412.38,2126.1,1412.16,2124.28,1411.66Z" transform="translate(-238.19 -46.11)"/><path class="cls-10" d="M2339.15,1741.34c1.82-.51,3.63-.73,5.45-1.1a10.9,10.9,0,0,1,13.23,10.6,8.52,8.52,0,0,0,3.9,7.33,10,10,0,0,0,4.49,1.51c1.82.37,3.64.59,5.45,1.1-1.81.51-3.63.73-5.45,1.11a10.77,10.77,0,0,1-6.08-.59,11.23,11.23,0,0,1-6.81-10.38,8.41,8.41,0,0,0-4.14-7.1,10.66,10.66,0,0,0-4.59-1.39C2342.78,1742.06,2341,1741.84,2339.15,1741.34Z" transform="translate(-238.19 -46.11)"/><path class="cls-10" d="M2233.35,1564.19c1.82-.51,3.64-.73,5.46-1.1A10.9,10.9,0,0,1,2252,1573.7a8.56,8.56,0,0,0,3.9,7.32,10,10,0,0,0,4.5,1.51c1.82.38,3.63.59,5.45,1.11-1.82.51-3.63.72-5.45,1.1a10.67,10.67,0,0,1-6.08-.59,11.19,11.19,0,0,1-6.81-10.37,8.45,8.45,0,0,0-4.14-7.11,10.74,10.74,0,0,0-4.59-1.38C2237,1564.92,2235.17,1564.7,2233.35,1564.19Z" transform="translate(-238.19 -46.11)"/><path class="cls-10" d="M2037.65,1596.38c1.82-.51,3.63-.73,5.45-1.1a10.9,10.9,0,0,1,13.23,10.6,8.52,8.52,0,0,0,3.9,7.33,10,10,0,0,0,4.49,1.51c1.82.37,3.64.59,5.45,1.1-1.81.51-3.63.73-5.45,1.11a10.68,10.68,0,0,1-6.08-.59,11.22,11.22,0,0,1-6.81-10.37,8.43,8.43,0,0,0-4.14-7.11,10.65,10.65,0,0,0-4.59-1.38C2041.28,1597.1,2039.47,1596.89,2037.65,1596.38Z" transform="translate(-238.19 -46.11)"/><path class="cls-10" d="M2323.44,1416c1.82-.51,3.64-.73,5.46-1.1a10.88,10.88,0,0,1,13.22,10.6,8.54,8.54,0,0,0,3.9,7.32,10,10,0,0,0,4.5,1.52c1.82.37,3.63.59,5.45,1.1-1.82.51-3.63.73-5.45,1.1a10.67,10.67,0,0,1-6.08-.58,11.22,11.22,0,0,1-6.81-10.38,8.42,8.42,0,0,0-4.14-7.1,10.74,10.74,0,0,0-4.59-1.39C2327.08,1416.72,2325.26,1416.5,2323.44,1416Z" transform="translate(-238.19 -46.11)"/><path class="cls-10" d="M2573.72,1658.54c1.82-.5,3.64-.72,5.46-1.09a10.88,10.88,0,0,1,13.22,10.6,8.54,8.54,0,0,0,3.9,7.32,10,10,0,0,0,4.5,1.52c1.82.37,3.63.59,5.45,1.1-1.82.51-3.63.73-5.45,1.1a10.67,10.67,0,0,1-6.08-.58,11.2,11.2,0,0,1-6.81-10.38,8.42,8.42,0,0,0-4.14-7.1,10.74,10.74,0,0,0-4.59-1.39C2577.36,1659.27,2575.54,1659.05,2573.72,1658.54Z" transform="translate(-238.19 -46.11)"/><path class="cls-10" d="M2474.37,1510.48c1.82-.51,3.64-.73,5.45-1.1a10.91,10.91,0,0,1,13.23,10.61,8.56,8.56,0,0,0,3.9,7.32,10,10,0,0,0,4.5,1.51c1.81.38,3.63.59,5.45,1.1-1.82.52-3.64.73-5.45,1.11a10.67,10.67,0,0,1-6.08-.59,11.21,11.21,0,0,1-6.82-10.37,8.38,8.38,0,0,0-4.14-7.1,10.52,10.52,0,0,0-4.59-1.39C2478,1511.21,2476.19,1511,2474.37,1510.48Z" transform="translate(-238.19 -46.11)"/><path class="cls-10" d="M2685.55,1726.27c1.82-.51,3.64-.73,5.46-1.1a10.88,10.88,0,0,1,13.22,10.6,8.57,8.57,0,0,0,3.9,7.33,10,10,0,0,0,4.5,1.51c1.82.37,3.63.59,5.45,1.1-1.82.51-3.63.73-5.45,1.11a10.67,10.67,0,0,1-6.08-.59,11.21,11.21,0,0,1-6.81-10.38,8.45,8.45,0,0,0-4.14-7.1,10.74,10.74,0,0,0-4.59-1.38C2689.19,1727,2687.37,1726.78,2685.55,1726.27Z" transform="translate(-238.19 -46.11)"/><path class="cls-10" d="M2189.52,1199.76c-.93,1.64-2.06,3.08-3.08,4.63a10.89,10.89,0,0,1-16.85,1.86,8.52,8.52,0,0,0-7.94-2.42,9.89,9.89,0,0,0-4.25,2.1c-1.55,1-3,2.15-4.63,3.08.92-1.65,2.05-3.09,3.07-4.64a10.78,10.78,0,0,1,4.71-3.88,11.22,11.22,0,0,1,12.16,2.52,8.39,8.39,0,0,0,7.95,2.09,10.64,10.64,0,0,0,4.23-2.26C2186.43,1201.82,2187.87,1200.69,2189.52,1199.76Z" transform="translate(-238.19 -46.11)"/><path class="cls-10" d="M2116.83,1078.21c-.92,1.65-2,3.09-3.08,4.64a10.9,10.9,0,0,1-16.85,1.85,8.53,8.53,0,0,0-7.93-2.42,10,10,0,0,0-4.25,2.11c-1.55,1-3,2.15-4.63,3.07.92-1.64,2-3.08,3.07-4.63a10.68,10.68,0,0,1,4.71-3.89,11.24,11.24,0,0,1,12.16,2.52,8.41,8.41,0,0,0,7.95,2.1,10.7,10.7,0,0,0,4.22-2.27C2113.75,1080.27,2115.19,1079.14,2116.83,1078.21Z" transform="translate(-238.19 -46.11)"/><path class="cls-10" d="M2483.61,1411.37c-.93,1.64-2.06,3.08-3.08,4.63a10.89,10.89,0,0,1-16.85,1.86,8.53,8.53,0,0,0-7.94-2.42,9.76,9.76,0,0,0-4.25,2.11c-1.55,1-3,2.15-4.63,3.07.92-1.65,2-3.09,3.07-4.64a10.73,10.73,0,0,1,4.71-3.88,11.24,11.24,0,0,1,12.16,2.52,8.38,8.38,0,0,0,7.95,2.09,10.54,10.54,0,0,0,4.22-2.26C2480.52,1413.43,2482,1412.3,2483.61,1411.37Z" transform="translate(-238.19 -46.11)"/><path class="cls-10" d="M2300.08,1017.38c-.93,1.65-2.06,3.09-3.08,4.64a10.9,10.9,0,0,1-16.85,1.85,8.54,8.54,0,0,0-7.94-2.42,10,10,0,0,0-4.24,2.11c-1.55,1-3,2.15-4.64,3.07.92-1.64,2.05-3.08,3.07-4.63a10.71,10.71,0,0,1,4.72-3.89,11.22,11.22,0,0,1,12.15,2.52,8.42,8.42,0,0,0,7.95,2.1,10.8,10.8,0,0,0,4.23-2.27C2297,1019.44,2298.43,1018.31,2300.08,1017.38Z" transform="translate(-238.19 -46.11)"/><path class="cls-10" d="M2172.94,927.61c-.93,1.65-2.06,3.09-3.08,4.63A10.89,10.89,0,0,1,2153,934.1a8.54,8.54,0,0,0-7.94-2.42,9.92,9.92,0,0,0-4.25,2.11c-1.54,1-3,2.15-4.63,3.07.92-1.64,2-3.08,3.07-4.63a10.71,10.71,0,0,1,4.72-3.89,11.22,11.22,0,0,1,12.15,2.52,8.42,8.42,0,0,0,7.95,2.1,10.8,10.8,0,0,0,4.23-2.27C2169.85,929.67,2171.29,928.54,2172.94,927.61Z" transform="translate(-238.19 -46.11)"/><path class="cls-10" d="M2292.93,1131.71c.51,1.81.73,3.63,1.1,5.45a10.9,10.9,0,0,1-10.6,13.23,8.52,8.52,0,0,0-7.33,3.9,9.92,9.92,0,0,0-1.51,4.49c-.37,1.82-.59,3.63-1.1,5.45-.51-1.82-.73-3.63-1.1-5.45a10.67,10.67,0,0,1,.58-6.08,11.22,11.22,0,0,1,10.38-6.81,8.41,8.41,0,0,0,7.1-4.14,10.7,10.7,0,0,0,1.39-4.59C2292.21,1135.34,2292.43,1133.52,2292.93,1131.71Z" transform="translate(-238.19 -46.11)"/><path class="cls-10" d="M2249.62,1451.45c.5,1.82.72,3.63,1.09,5.45a10.9,10.9,0,0,1-10.6,13.23,8.5,8.5,0,0,0-7.32,3.9,9.84,9.84,0,0,0-1.51,4.49c-.38,1.82-.6,3.64-1.11,5.46-.51-1.82-.73-3.64-1.1-5.46a10.67,10.67,0,0,1,.58-6.08,11.23,11.23,0,0,1,10.38-6.81,8.4,8.4,0,0,0,7.1-4.14,10.52,10.52,0,0,0,1.39-4.59C2248.89,1455.08,2249.11,1453.27,2249.62,1451.45Z" transform="translate(-238.19 -46.11)"/><path class="cls-10" d="M2669.54,1599.56c.51,1.82.73,3.64,1.1,5.45a10.89,10.89,0,0,1-10.6,13.23,8.52,8.52,0,0,0-7.33,3.9,10,10,0,0,0-1.51,4.5c-.37,1.81-.59,3.63-1.1,5.45-.51-1.82-.73-3.64-1.11-5.45a10.67,10.67,0,0,1,.59-6.08,11.21,11.21,0,0,1,10.37-6.82,8.43,8.43,0,0,0,7.11-4.14,10.65,10.65,0,0,0,1.38-4.59C2668.82,1603.2,2669,1601.38,2669.54,1599.56Z" transform="translate(-238.19 -46.11)"/><path class="cls-10" d="M2475,1176c.51,1.82.73,3.64,1.1,5.45a10.89,10.89,0,0,1-10.6,13.23,8.54,8.54,0,0,0-7.33,3.9,10,10,0,0,0-1.51,4.5c-.37,1.81-.59,3.63-1.1,5.45-.51-1.82-.73-3.64-1.11-5.45a10.75,10.75,0,0,1,.59-6.08,11.23,11.23,0,0,1,10.38-6.82,8.41,8.41,0,0,0,7.1-4.14,10.66,10.66,0,0,0,1.39-4.59C2474.23,1179.62,2474.45,1177.8,2475,1176Z" transform="translate(-238.19 -46.11)"/><path class="cls-10" d="M2475,1689.36c.51,1.82.73,3.64,1.1,5.45a10.89,10.89,0,0,1-10.6,13.23,8.52,8.52,0,0,0-7.32,3.9,9.85,9.85,0,0,0-1.52,4.5c-.37,1.81-.59,3.63-1.1,5.45-.51-1.82-.73-3.64-1.1-5.45a10.66,10.66,0,0,1,.58-6.08,11.23,11.23,0,0,1,10.38-6.82,8.41,8.41,0,0,0,7.1-4.14,10.66,10.66,0,0,0,1.39-4.59C2474.23,1693,2474.45,1691.18,2475,1689.36Z" transform="translate(-238.19 -46.11)"/><path class="cls-10" d="M2573.72,1395.39c.51,1.82.73,3.64,1.1,5.46a10.88,10.88,0,0,1-10.6,13.22,8.54,8.54,0,0,0-7.32,3.9,9.89,9.89,0,0,0-1.52,4.5c-.37,1.81-.59,3.63-1.1,5.45-.51-1.82-.73-3.64-1.1-5.45a10.66,10.66,0,0,1,.58-6.08,11.2,11.2,0,0,1,10.38-6.81,8.43,8.43,0,0,0,7.1-4.14,10.74,10.74,0,0,0,1.39-4.59C2573,1399,2573.22,1397.21,2573.72,1395.39Z" transform="translate(-238.19 -46.11)"/><path class="cls-10" d="M2073.36,1462.89c.5,1.82.72,3.63,1.09,5.45a10.9,10.9,0,0,1-10.6,13.23,8.49,8.49,0,0,0-7.32,3.9A10,10,0,0,0,2055,1490c-.37,1.82-.59,3.64-1.1,5.45-.51-1.81-.73-3.63-1.1-5.45a10.67,10.67,0,0,1,.58-6.08,11.23,11.23,0,0,1,10.38-6.81,8.4,8.4,0,0,0,7.1-4.14,10.66,10.66,0,0,0,1.39-4.59C2072.63,1466.52,2072.85,1464.71,2073.36,1462.89Z" transform="translate(-238.19 -46.11)"/><path class="cls-10" d="M2083.08,1176c.51,1.82.72,3.64,1.1,5.45a10.91,10.91,0,0,1-10.61,13.23,8.54,8.54,0,0,0-7.32,3.9,10,10,0,0,0-1.51,4.5c-.38,1.81-.6,3.63-1.11,5.45-.51-1.82-.73-3.64-1.1-5.45a10.66,10.66,0,0,1,.58-6.08,11.24,11.24,0,0,1,10.38-6.82,8.38,8.38,0,0,0,7.1-4.14,10.52,10.52,0,0,0,1.39-4.59C2082.35,1179.62,2082.57,1177.8,2083.08,1176Z" transform="translate(-238.19 -46.11)"/><path class="cls-10" d="M2187.74,989.48c.5,1.82.72,3.64,1.09,5.46a10.88,10.88,0,0,1-10.6,13.22,8.54,8.54,0,0,0-7.32,3.9,10,10,0,0,0-1.52,4.5c-.37,1.81-.59,3.63-1.1,5.45-.51-1.82-.73-3.64-1.1-5.45a10.67,10.67,0,0,1,.58-6.08,11.2,11.2,0,0,1,10.38-6.81,8.42,8.42,0,0,0,7.1-4.14,10.74,10.74,0,0,0,1.39-4.59C2187,993.12,2187.23,991.3,2187.74,989.48Z" transform="translate(-238.19 -46.11)"/><path class="cls-10" d="M2159.64,1277.82c.51,1.82.73,3.64,1.1,5.46a10.91,10.91,0,0,1-10.61,13.23,8.53,8.53,0,0,0-7.32,3.89,10,10,0,0,0-1.51,4.5c-.38,1.82-.6,3.63-1.11,5.45-.51-1.82-.73-3.63-1.1-5.45a10.59,10.59,0,0,1,.59-6.08,11.2,11.2,0,0,1,10.37-6.81,8.4,8.4,0,0,0,7.1-4.14,10.61,10.61,0,0,0,1.39-4.59C2158.91,1281.46,2159.13,1279.64,2159.64,1277.82Z" transform="translate(-238.19 -46.11)"/><path class="cls-10" d="M2411.92,1316.58c.51,1.82.73,3.64,1.1,5.46a10.88,10.88,0,0,1-10.6,13.22,8.54,8.54,0,0,0-7.32,3.9,9.85,9.85,0,0,0-1.52,4.5c-.37,1.81-.59,3.63-1.1,5.45-.51-1.82-.73-3.64-1.1-5.45a10.66,10.66,0,0,1,.58-6.08,11.2,11.2,0,0,1,10.38-6.81,8.43,8.43,0,0,0,7.1-4.14,10.74,10.74,0,0,0,1.39-4.59C2411.2,1320.22,2411.42,1318.4,2411.92,1316.58Z" transform="translate(-238.19 -46.11)"/><path class="cls-10" d="M2178.75,1640.37c.51,1.81.73,3.63,1.1,5.45a10.9,10.9,0,0,1-10.6,13.23,8.49,8.49,0,0,0-7.32,3.9,9.81,9.81,0,0,0-1.52,4.49c-.37,1.82-.59,3.63-1.1,5.45-.51-1.82-.73-3.63-1.1-5.45a10.67,10.67,0,0,1,.58-6.08,11.22,11.22,0,0,1,10.38-6.81,8.41,8.41,0,0,0,7.1-4.14,10.7,10.7,0,0,0,1.39-4.59C2178,1644,2178.25,1642.18,2178.75,1640.37Z" transform="translate(-238.19 -46.11)"/><path class="cls-10" d="M2368.69,1225.06c.93-1.65,2.06-3.09,3.08-4.63a10.89,10.89,0,0,1,16.85-1.86,8.54,8.54,0,0,0,7.94,2.42,9.89,9.89,0,0,0,4.24-2.11c1.55-1,3-2.15,4.64-3.07-.92,1.64-2.05,3.08-3.07,4.63a10.71,10.71,0,0,1-4.72,3.89,11.22,11.22,0,0,1-12.15-2.52,8.42,8.42,0,0,0-7.95-2.1,10.73,10.73,0,0,0-4.23,2.27C2371.77,1223,2370.33,1224.13,2368.69,1225.06Z" transform="translate(-238.19 -46.11)"/><path class="cls-10" d="M2221.52,1358.36c.93-1.65,2.06-3.09,3.08-4.63a10.89,10.89,0,0,1,16.85-1.86,8.52,8.52,0,0,0,7.94,2.42,9.89,9.89,0,0,0,4.24-2.11c1.55-1,3-2.15,4.64-3.07-.93,1.64-2.06,3.08-3.08,4.63a10.68,10.68,0,0,1-4.71,3.89,11.22,11.22,0,0,1-12.15-2.52,8.42,8.42,0,0,0-7.95-2.1,10.66,10.66,0,0,0-4.23,2.27C2224.6,1356.3,2223.16,1357.43,2221.52,1358.36Z" transform="translate(-238.19 -46.11)"/><path class="cls-10" d="M2121.82,1554.74c.93-1.65,2.06-3.09,3.08-4.63a10.89,10.89,0,0,1,16.85-1.86,8.54,8.54,0,0,0,7.94,2.42,9.89,9.89,0,0,0,4.24-2.11c1.55-1,3-2.15,4.64-3.07-.93,1.64-2.06,3.08-3.08,4.63a10.68,10.68,0,0,1-4.71,3.89,11.22,11.22,0,0,1-12.15-2.52,8.42,8.42,0,0,0-8-2.1,10.66,10.66,0,0,0-4.23,2.27C2124.9,1552.68,2123.46,1553.81,2121.82,1554.74Z" transform="translate(-238.19 -46.11)"/><path class="cls-10" d="M2164.92,1758.79c.92-1.64,2-3.08,3.08-4.63a10.9,10.9,0,0,1,16.85-1.85,8.53,8.53,0,0,0,7.93,2.42,10,10,0,0,0,4.25-2.11c1.55-1,3-2.15,4.64-3.08-.93,1.65-2.06,3.09-3.08,4.64a10.68,10.68,0,0,1-4.71,3.89,11.24,11.24,0,0,1-12.16-2.52,8.41,8.41,0,0,0-7.95-2.1,10.7,10.7,0,0,0-4.22,2.27C2168,1756.74,2166.56,1757.87,2164.92,1758.79Z" transform="translate(-238.19 -46.11)"/><path class="cls-10" d="M2357.84,1534.55c.93-1.64,2.06-3.08,3.08-4.63a10.89,10.89,0,0,1,16.85-1.86,8.52,8.52,0,0,0,7.94,2.42,10,10,0,0,0,4.25-2.1c1.54-1,3-2.16,4.63-3.08-.92,1.65-2.05,3.09-3.07,4.64a10.76,10.76,0,0,1-4.72,3.88,11.22,11.22,0,0,1-12.15-2.52,8.39,8.39,0,0,0-8-2.09,10.64,10.64,0,0,0-4.23,2.26C2360.93,1532.49,2359.49,1533.62,2357.84,1534.55Z" transform="translate(-238.19 -46.11)"/><path class="cls-10" d="M2490.64,1615.82c.92-1.64,2.05-3.08,3.07-4.63a10.9,10.9,0,0,1,16.85-1.85,8.56,8.56,0,0,0,7.94,2.42,10,10,0,0,0,4.25-2.11c1.55-1,3-2.15,4.63-3.08-.92,1.65-2.05,3.09-3.07,4.64a10.59,10.59,0,0,1-4.71,3.88,11.22,11.22,0,0,1-12.16-2.52,8.43,8.43,0,0,0-8-2.09,10.54,10.54,0,0,0-4.22,2.26C2493.72,1613.77,2492.28,1614.9,2490.64,1615.82Z" transform="translate(-238.19 -46.11)"/><path class="cls-10" d="M2267.26,1677.52c.93-1.65,2.06-3.09,3.08-4.63a10.89,10.89,0,0,1,16.85-1.86,8.55,8.55,0,0,0,7.94,2.42,10,10,0,0,0,4.25-2.11c1.55-1,3-2.15,4.63-3.07-.92,1.64-2.05,3.08-3.07,4.63a10.68,10.68,0,0,1-4.71,3.89,11.24,11.24,0,0,1-12.16-2.52,8.41,8.41,0,0,0-8-2.1,10.7,10.7,0,0,0-4.22,2.27C2270.35,1675.46,2268.91,1676.59,2267.26,1677.52Z" transform="translate(-238.19 -46.11)"/><path class="cls-10" d="M2555.35,1758.79c.93-1.64,2.06-3.08,3.08-4.63a10.9,10.9,0,0,1,16.85-1.85,8.54,8.54,0,0,0,7.94,2.42,10,10,0,0,0,4.24-2.11c1.55-1,3-2.15,4.64-3.08-.93,1.65-2.06,3.09-3.08,4.64a10.68,10.68,0,0,1-4.71,3.89,11.22,11.22,0,0,1-12.15-2.52,8.42,8.42,0,0,0-7.95-2.1,10.66,10.66,0,0,0-4.23,2.27C2558.43,1756.74,2557,1757.87,2555.35,1758.79Z" transform="translate(-238.19 -46.11)"/><path class="cls-10" d="M2587.88,1539.17c.92-1.64,2-3.08,3.08-4.63a10.9,10.9,0,0,1,16.85-1.85,8.53,8.53,0,0,0,7.93,2.42A10,10,0,0,0,2620,1533c1.55-1,3-2.15,4.63-3.08-.92,1.65-2,3.09-3.07,4.64a10.68,10.68,0,0,1-4.71,3.89,11.24,11.24,0,0,1-12.16-2.52,8.41,8.41,0,0,0-7.95-2.1,10.7,10.7,0,0,0-4.22,2.27C2591,1537.12,2589.52,1538.25,2587.88,1539.17Z" transform="translate(-238.19 -46.11)"/><path class="cls-10" d="M2061.71,1705.62c.93-1.64,2.06-3.08,3.08-4.63a10.9,10.9,0,0,1,16.85-1.85,8.54,8.54,0,0,0,7.94,2.42,10,10,0,0,0,4.24-2.11c1.55-1,3-2.15,4.64-3.08-.92,1.65-2.05,3.09-3.08,4.64a10.59,10.59,0,0,1-4.71,3.88,11.2,11.2,0,0,1-12.15-2.51,8.42,8.42,0,0,0-7.95-2.1,10.7,10.7,0,0,0-4.23,2.26C2064.79,1703.57,2063.35,1704.7,2061.71,1705.62Z" transform="translate(-238.19 -46.11)"/><path class="cls-10" d="M2045.26,1363c.93-1.64,2.06-3.08,3.08-4.63a10.9,10.9,0,0,1,16.85-1.85,8.54,8.54,0,0,0,7.94,2.42,10,10,0,0,0,4.24-2.11c1.55-1,3-2.15,4.64-3.08-.93,1.65-2.06,3.09-3.08,4.64a10.59,10.59,0,0,1-4.71,3.88,11.2,11.2,0,0,1-12.15-2.52,8.44,8.44,0,0,0-8-2.09,10.51,10.51,0,0,0-4.23,2.26C2048.34,1360.93,2046.9,1362.06,2045.26,1363Z" transform="translate(-238.19 -46.11)"/><path class="cls-7" d="M2241.07,905.78c-2.23,11.2-52.89,85.11-103.78,84.41-16.57-.25-19.21-90.77-19.21-90.77l-1.72-6.63-24.05-92.93L2200,725.65l15.58-9.87s4.9,25.86,10.68,58.12c.28,1.49.55,3,.83,4.59.37,1.82.75,3.53,1,5.24.92,4.81,1.85,9.72,2.67,14.63.63,3.74,1.27,7.37,1.8,11.32s1.16,7.79,1.79,11.74C2239.7,860.47,2242,901,2241.07,905.78Z" transform="translate(-238.19 -46.11)"/><path class="cls-4" d="M2226.21,773.9c-24.35,75.4-82.86,107.75-109.85,118.89l-24.05-92.93L2200,725.65l15.58-9.87S2220.43,741.64,2226.21,773.9Z" transform="translate(-238.19 -46.11)"/><path class="cls-7" d="M1960.41,661.89c-4.45,168.4,95.91,190.08,132.22,191,33,.84,145.32-.51,167.15-167.55S2204.71,463,2129.42,457.1,1964.85,493.49,1960.41,661.89Z" transform="translate(-238.19 -46.11)"/><path class="cls-4" d="M1986,610.92a111.46,111.46,0,0,0,11.27-2.89c4.31-1.16,7.86-1.64,10.93-5.15,1.64-1.88,1.35-5.54-.33-7.31-3.91-4.12-9.54-4-14.79-2.83a21.83,21.83,0,0,0-13.35,8.31C1976.21,605.49,1980.78,611.75,1986,610.92Z" transform="translate(-238.19 -46.11)"/><path class="cls-4" d="M2098.54,635.53a110.81,110.81,0,0,1-11.48-1.91c-4.4-.78-8-.94-11.34-4.17-1.8-1.73-1.82-5.4-.31-7.31,3.54-4.44,9.16-4.83,14.49-4.11a21.86,21.86,0,0,1,14,7.12C2107.78,629.27,2103.77,635.91,2098.54,635.53Z" transform="translate(-238.19 -46.11)"/><path class="cls-4" d="M2010.8,665.73c-.12-.43-.86.61-.81,1.07,1.13,11.42.5,24.69-9.6,29.19-.31.14-.24.71.14.63C2013.05,694,2013.7,676.37,2010.8,665.73Z" transform="translate(-238.19 -46.11)"/><path class="cls-4" d="M1999.78,654.47c-18.5-.17-17.47,36.85-.33,37C2016.32,691.62,2015.29,654.6,1999.78,654.47Z" transform="translate(-238.19 -46.11)"/><path class="cls-4" d="M1992.13,657.12c-2.87,2-5.66,5.69-9.15,6-4,.38-7.15-3.54-9.84-7.3-.28-.39-.57-.08-.56.41,0,7.08,2.54,14.39,9.38,15.56,6.23,1.06,10.61-5.14,12.1-12.23C1994.34,658.26,1993.29,656.29,1992.13,657.12Z" transform="translate(-238.19 -46.11)"/><path class="cls-4" d="M2086.14,763.74c-2.85,2.6-5.73,6.21-9.91,6.41-4,.19-8.63-1.78-12.25-3.33a.4.4,0,0,0-.52.57,15.5,15.5,0,0,0,14.37,6.76c5.24-.73,8-5.13,9.4-9.85C2087.43,763.64,2086.56,763.37,2086.14,763.74Z" transform="translate(-238.19 -46.11)"/><path class="cls-4" d="M2028.78,717.72s-1.37,17.16-.91,25.2c.05.75,22.79-2.5,46.79,4.08,3.6,1,3.4-2-.71-4.14-8.2-4.3-18.69-8.49-39.58-7.33-.69-2.19,2.6-26.38,1.33-26.41-4.42-.12-12.9,3.37-18,5.19,1.82-35.84,9.37-71.09,10.65-106.8a1.1,1.1,0,0,0-2.13-.4c-10.53,36.39-13.52,77.58-16.36,114.54C2009.46,726.26,2025.64,719.27,2028.78,717.72Z" transform="translate(-238.19 -46.11)"/><path class="cls-4" d="M2108.9,666.33a36.54,36.54,0,0,0-10.34-2.43,37.59,37.59,0,0,0-10.89.72,30.79,30.79,0,0,0-10.54,4.72,27.47,27.47,0,0,0-7.89,9.22l-3.49,6.56,7.24-.8a72.47,72.47,0,0,1,15.38-.08c5.12.64,10.18,1.89,14.84,5.27-2.56-5.33-7.94-9.11-13.52-11a42.51,42.51,0,0,0-17.55-2l3.75,5.76a26.58,26.58,0,0,1,13.55-11.3A78.86,78.86,0,0,1,2108.9,666.33Z" transform="translate(-238.19 -46.11)"/><path class="cls-4" d="M2088.06,696.15c-5.43-1.88-10.67-2.78-15.58-6-1.12-.75-5.49-4.05-5.24-5a33.13,33.13,0,0,1,2.86-8.07c-1.72,2.39-3.67,4.61-4.48,7.85a10.89,10.89,0,0,0,5.61,7.45A32.14,32.14,0,0,0,2088.06,696.15Z" transform="translate(-238.19 -46.11)"/><path class="cls-4" d="M2048.19,741.75s10.45,15,22.46,16.8c13.81,2.13,15.45-10.3.19-17.36C2062.85,737.49,2048.19,741.75,2048.19,741.75Z" transform="translate(-238.19 -46.11)"/><path class="cls-11" d="M2070.61,758.52c-5.15-.74-10-3.89-13.87-7.36,2.84-4.3,9.46-9,24.27-1C2083.21,755.47,2079.33,759.88,2070.61,758.52Z" transform="translate(-238.19 -46.11)"/><path class="cls-4" d="M2258.59,689.36c-27.74,3.5-37-54.56-37-54.56s-56.57,2.92-79.18-77.53c0,0,3.06,37.81,28.31,66.06,0,0-100.27-5.74-146.32-87.18,0,0,18.82,41.71,35.26,56.07,0,0-42.4-9.64-64.46-42.62,0,0-15.12,49-27.92,63,0,0-4.36-174.74,158.24-164,0,0,101.57,1.81,141.82,80.18S2258.59,689.36,2258.59,689.36Z" transform="translate(-238.19 -46.11)"/><path class="cls-7" d="M2232.67,697.57s33.54-54.7,58.15-43.05,1.58,89.4-25.75,101.49-39-13-39-13Z" transform="translate(-238.19 -46.11)"/><path class="cls-4" d="M2283.66,676.65a.38.38,0,0,1,.2.73c-19.13,9.13-28.35,27.93-34.45,47.21,5.4-7.61,13.09-12.06,23.23-5.7.53.33.09,1.16-.47,1.08-8.13-1.24-13.84.5-18.88,7.26-3.57,4.78-5.84,10.7-8.28,16.12-.81,1.81-4,1.06-3.49-1,0-.16.09-.31.14-.47C2239.66,716.92,2257,680.78,2283.66,676.65Z" transform="translate(-238.19 -46.11)"/><path class="cls-10" d="M2249.09,747.22a7.85,7.85,0,1,0,7.42-8.25A7.84,7.84,0,0,0,2249.09,747.22Z" transform="translate(-238.19 -46.11)"/><path class="cls-10" d="M2268.11,734.19a5,5,0,1,0,4.75-5.28A5,5,0,0,0,2268.11,734.19Z" transform="translate(-238.19 -46.11)"/><rect class="cls-3" x="1664.81" y="1068.46" width="89.47" height="277.06" transform="translate(-466.94 371.96) rotate(-13.08)"/><path class="cls-1" d="M1509.42,345.43C1306,392.68,1179.28,596,1226.55,799.53s250.58,330.14,454.05,282.88,330.14-250.57,282.88-454S1713,298.15,1509.42,345.43Zm153.16,659.4c-160.61,37.3-321.14-62.71-358.44-223.32s62.69-321.19,223.3-358.5,321.14,62.71,358.45,223.38S1823.25,967.51,1662.58,1004.83Z" transform="translate(-238.19 -46.11)"/><rect class="cls-4" x="1700.62" y="1256.99" width="135.31" height="405.71" rx="6.27" transform="translate(-522.62 391.8) rotate(-13.08)"/><g class="cls-12"><path class="cls-10" d="M1885.89,646.39c37.31,160.61-62.64,321.12-223.31,358.44s-321.14-62.71-358.44-223.32,62.69-321.19,223.3-358.5S1848.58,485.72,1885.89,646.39Z" transform="translate(-238.19 -46.11)"/><path class="cls-3" d="M1893.24,730.58c-7.11,129.16-98.26,243.55-230.68,274.26a298.18,298.18,0,0,1-81.52,7.48Z" transform="translate(-238.19 -46.11)"/><path class="cls-3" d="M1755.83,462.32,1328.24,848.2a298.69,298.69,0,0,1-24.1-66.69,293.45,293.45,0,0,1-7.46-80.86l315.67-284.93A298.42,298.42,0,0,1,1755.83,462.32Z" transform="translate(-238.19 -46.11)"/><path class="cls-3" d="M1877.69,617.75l-407.3,367.56a303,303,0,0,1-50.59-29.58l433.7-391.39A289,289,0,0,1,1877.69,617.75Z" transform="translate(-238.19 -46.11)"/><path class="cls-3" d="M1788.66,486.67,1349.1,883.41c-2.07-3-4.08-6-6-9L1780.3,479.81C1783.13,482,1786,484.24,1788.66,486.67Z" transform="translate(-238.19 -46.11)"/><path class="cls-3" d="M1512.91,426.79,1317.8,602.86q5-12.45,11.11-24.43l158.69-143.2Q1499.92,430.45,1512.91,426.79Z" transform="translate(-238.19 -46.11)"/></g><path class="cls-10" d="M1383,765.63c-.08-.41-.16-.82-.23-1.23-1-5.75.77,5.71.27,1.83-.6-4.63-1.2-9.26-1.59-13.91a294.39,294.39,0,0,1,0-49c.19-2.3.47-4.59.65-6.88.06-.76-.68,5.42,0,.5.18-1.4.35-2.79.55-4.19q1.11-8.09,2.68-16.11a274.64,274.64,0,0,1,9.2-34.77c.91-2.72,1.92-5.4,2.88-8.11,1.3-3.64-1.68,4.05.3-.75.66-1.59,1.31-3.19,2-4.77q3.85-9.06,8.43-17.8,4.93-9.44,10.68-18.42c1.75-2.75,3.57-5.44,5.42-8.12,3.19-4.64-1.48,1.84,1-1.38,1.19-1.55,2.36-3.13,3.56-4.67a268,268,0,0,1,36.5-37.82c.27-.24,2.72-2.25.68-.58s1.11-.88,1.47-1.16c2.05-1.6,4.1-3.2,6.19-4.75q6-4.5,12.25-8.67c8.81-5.88,17.93-11.25,27.27-16.24,10.73-5.73,13.3-21.2,7.18-31-6.8-10.91-20.27-12.93-31-7.18C1430,502.12,1381.41,552.05,1356.72,615A310.11,310.11,0,0,0,1336,748.19a228.05,228.05,0,0,0,3.8,30.27c2.35,11.57,17.2,18.9,28,15.16,12.38-4.29,17.68-15.6,15.16-28Z" transform="translate(-238.19 -46.11)"/><path class="cls-10" d="M1403.15,829.47a22.13,22.13,0,1,1-27.53-14.91A22.13,22.13,0,0,1,1403.15,829.47Z" transform="translate(-238.19 -46.11)"/><path class="cls-7" d="M2358.13,1018.71c54,195.35,80,391.46,50,492.59-19.07,64.46-65.09,108-94.41,122.45-68.49,33.87-295.66-14.19-443.7-43.94-36.39-7.31,49.41-300.44,85.92-284.91,53.87,22.91,219.42,53.73,224,55.27,9.77,3.32,30.15-208.61,44.32-332.87C2244,854.19,2327,905.92,2358.13,1018.71Z" transform="translate(-238.19 -46.11)"/><path class="cls-7" d="M1585.58,1249.13c-16.09,26.2,4.8,50.24,4.8,50.24s-22.29,10.3-30.73,32.32c-9.66,25.23,25.65,51.45,25.65,51.45s-20.4,15.09-27,39.26c-6.82,25.07,25,56.61,25,56.61s-11.27,24.5-2,49.46c15.89,42.67,84,56.63,127.26,65.94s174.54-4.77,199.84-4.92l62.14-276.9s-182-96.89-234.32-100.63C1692.19,1208.82,1603.64,1219.71,1585.58,1249.13Z" transform="translate(-238.19 -46.11)"/><path class="cls-4" d="M1593.29,1295.35c47.71-7.92,95.17-1.29,142.91,2.63a.83.83,0,0,1-.15,1.65c-47.44-4.45-95.15.57-142.66-2A1.16,1.16,0,0,1,1593.29,1295.35Z" transform="translate(-238.19 -46.11)"/><path class="cls-4" d="M1587,1379.71c10.85-1.46,22.15.65,32.91,2.08q17.37,2.31,34.66,5.19c23.08,3.84,46.07,8.2,68.92,13.24,1,.22.92,1.83-.16,1.65-23-3.78-46.06-7.22-69.21-10q-17.37-2.11-34.78-3.95c-10.79-1.15-22.27-1.46-32.62-5A1.67,1.67,0,0,1,1587,1379.71Z" transform="translate(-238.19 -46.11)"/><path class="cls-4" d="M1584.35,1479.14c9.37-1.65,20.29,1.72,29.52,3.45q15.72,3,31.47,5.73c21,3.7,42,7.39,63.1,10.36,1,.15.91,1.79-.16,1.65-21.46-2.91-43-5.52-64.4-8.62q-15.8-2.26-31.56-4.73c-8.94-1.39-20.26-2.11-28.2-6.79A.59.59,0,0,1,1584.35,1479.14Z" transform="translate(-238.19 -46.11)"/><path class="cls-4" d="M1644.88,1220.44c-21.78,2.81-46.77,7.59-60.82,26.13-6.08,8-10.23,17.92-9,28.16a37.65,37.65,0,0,0,13.47,24.3h0c-17,5.18-31.7,21.84-33.31,39.61-.87,9.61,2.57,17.77,8.64,25,3,3.52,6.4,6.68,9.67,9.91s7,5.84,10.4,8.82a95.93,95.93,0,0,0-10.36,9.48,77.25,77.25,0,0,0-9.71,11.42c-5.62,8.28-9.32,17.82-9.43,27.91s4.46,19.36,9.94,27.57c5.16,7.74,11.56,15.7,20,20a.48.48,0,0,0,.55-.78,81.87,81.87,0,0,1-16.28-20.47c-4.63-8.35-8.58-17.53-8.18-27.26.39-9.2,4.23-17.89,9-25.61a136.32,136.32,0,0,1,8.27-11.84c2.44-3.15,8.89-9.59,8.28-10-.08-.06-7.14-7.53-9.64-10.78s-5-6.71-7.25-10.24c-4.53-7.07-7.33-14.78-6-23.26,1.2-7.73,5.08-14.7,10-20.65,5.09-6.1,11.59-10.77,16.89-16.62a2.77,2.77,0,0,0,.27-2.1c-12.06-18.71-10.48-36.49,2.38-50.34,6.42-6.91,14.27-12.09,22.6-16.42,9.45-4.93,19.81-7.51,29.87-10.86C1645.72,1221.4,1645.58,1220.35,1644.88,1220.44Z" transform="translate(-238.19 -46.11)"/><path class="cls-4" d="M2042.87,1623.69c-12.8-3.91-26.3-6-39.37-8.86s-26.33-5.57-39.53-8.21q-20.17-4-40.39-7.84c-13-2.44-26-5.34-39.08-6.9-12.78-1.52-25.19-.58-37.92.87s-25.41,2.47-38.16,3.08a556.69,556.69,0,0,1-77.16-1.68,520.31,520.31,0,0,1-85.88-15.35c-.59-.16-.79.72-.22.91,48.71,16,100.07,24.48,151.39,23.87,12.77-.16,25.52-.81,38.23-2s25.35-3.53,38.12-3.25c13.53.29,26.88,3.31,40.12,5.79s26.48,5,39.75,7.34c15,2.63,30,5.34,45,7.7,14.84,2.33,29.83,5.67,44.81,6.8C2043.94,1626,2044,1624,2042.87,1623.69Z" transform="translate(-238.19 -46.11)"/><path class="cls-4" d="M2229.27,1372.3c-19.21-6.57-39.5-10.63-59.22-15.38s-39.71-9.34-59.6-13.83c-37.93-8.56-76.36-15.85-113.83-26.31-9.88-2.76-19.67-5.81-29.33-9.28-4.85-1.75-9.63-3.66-14.37-5.69-4.9-2.09-10.18-3.77-14.84-6.33a.49.49,0,0,0-.47.86c3.83,2.34,7.28,5.17,11.18,7.43,4.23,2.44,8.65,4.57,13.08,6.62a244.32,244.32,0,0,0,24.91,9.81c17.66,5.93,35.86,10.13,54,14.3,39.62,9.11,79.26,18.08,119,26.59,11.19,2.39,22.39,4.8,33.61,7,11.69,2.33,23.5,5,35.34,6.31A1.1,1.1,0,0,0,2229.27,1372.3Z" transform="translate(-238.19 -46.11)"/><path class="cls-8" d="M2166.78,1299.63l274.4,37.35S2391,1051.54,2337.66,957c-52.66-93.3-110.74-31.61-132.94,81.21C2180.1,1163.32,2166.78,1299.63,2166.78,1299.63Z" transform="translate(-238.19 -46.11)"/><path class="cls-4" d="M2420.76,1295.63c-7.66-1.81-15.52-3-23.22-4.65-7.48-1.64-15.05-2.82-22.62-4-15.43-2.41-30.91-4.54-46.38-6.67-30.49-4.18-61-8.82-91.58-12.17-17.39-1.9-34.71-4.53-52.13-6.16-.54,0-.61.8-.11.92,30.31,7.12,61.22,12.35,91.94,17.36,30.41,5,61,9.66,91.59,13,8.58.93,17.19,2,25.81,2.45,8.82.43,17.72,1.25,26.54,1.39A.76.76,0,0,0,2420.76,1295.63Z" transform="translate(-238.19 -46.11)"/><path class="cls-10" d="M2571.21,260.08c-10.53,100.66-100.71,173.77-201.37,163.24A182.14,182.14,0,0,1,2265,376l-91.7,13.46,45.88-79.27a181.83,181.83,0,0,1-12.57-88.26C2217.12,121.28,2307.31,48.17,2408,58.7S2581.74,159.41,2571.21,260.08Z" transform="translate(-238.19 -46.11)"/><path class="cls-4" d="M2571.21,260.08c-3.82,33.46-16.06,66.26-37,92.91-4.81,7-11,12.81-16.61,19.12-6.37,5.55-12.31,11.64-19.34,16.38a180.77,180.77,0,0,1-44.22,24.62c-15.67,6.59-32.53,9.74-49.34,11.76-8.48.46-17,1.23-25.47.49a161.22,161.22,0,0,1-25.36-2.64A184.88,184.88,0,0,1,2263.2,378l2.17.66-91.61,14.07-6.64,1,3.36-5.86,45.61-79.43-.21,3.14c-22.22-52.32-17.21-114.62,11.29-163.36a187.39,187.39,0,0,1,57.4-61.13,186.42,186.42,0,0,1,161.1-21.69,187.28,187.28,0,0,1,70.69,43.34C2556.83,147.18,2577.17,204.89,2571.21,260.08Zm0,0c5.58-55.24-15.17-112.6-55.65-150.55a185,185,0,0,0-70.68-41.7,182.91,182.91,0,0,0-81.52-6.11,180.14,180.14,0,0,0-75.69,29.91,188.73,188.73,0,0,0-54.84,59.81c-13.89,23.53-21.09,50.49-23.27,77.55a183.26,183.26,0,0,0,12.9,79.85l.66,1.64-.87,1.5-46.15,79.11-3.28-4.84,91.78-12.85,1.27-.18.9.85a180.61,180.61,0,0,0,87.77,45.21,157.33,157.33,0,0,0,24.86,3c8.35.88,16.71.26,25.08,0,16.6-1.71,33.33-4.51,49-10.78,15.68-5.87,30.85-13.57,44.21-23.82,7-4.67,13-10.69,19.35-16.16,5.63-6.25,11.84-12,16.67-18.93C2554.71,326.16,2567.16,293.52,2571.21,260.08Z" transform="translate(-238.19 -46.11)"/><path class="cls-5" d="M2299.31,326.47c0-10.94,7.59-18.85,17.93-18.85,10.94,0,17.93,7.91,17.93,18.85,0,10.64-7,18.84-17.93,18.84C2306.6,345.31,2299.31,337.11,2299.31,326.47ZM2306.9,283l-4.25-145.89h29.18L2327.57,283Z" transform="translate(-238.19 -46.11)"/><path class="cls-5" d="M2369.22,326.47c0-10.94,7.6-18.85,17.93-18.85,10.94,0,17.94,7.91,17.94,18.85,0,10.64-7,18.84-17.94,18.84C2376.51,345.31,2369.22,337.11,2369.22,326.47Zm7.6-43.47-4.26-145.89h29.18L2397.49,283Z" transform="translate(-238.19 -46.11)"/><path class="cls-5" d="M2439.13,326.47c0-10.94,7.6-18.85,17.93-18.85,11,0,17.94,7.91,17.94,18.85,0,10.64-7,18.84-17.94,18.84C2446.43,345.31,2439.13,337.11,2439.13,326.47Zm7.6-43.47-4.25-145.89h29.17L2467.4,283Z" transform="translate(-238.19 -46.11)"/></svg>